<svg xmlns="http://www.w3.org/2000/svg" width="15" height="14" viewBox="0 0 15 14" fill="none">
    <path d="M3.38508 13.9471C3.0226 14.1314 2.61169 13.8071 2.68512 13.3949L3.4632 8.97966L0.161048 5.84771C-0.147528 5.5545 0.0126189 5.01942 0.426658 4.96109L5.0178 4.31168L7.06456 0.273664C7.1036 0.191777 7.16517 0.122596 7.24213 0.0741549C7.31908 0.0257136 7.40826 0 7.4993 0C7.59035 0 7.67953 0.0257136 7.75648 0.0741549C7.83344 0.122596 7.89501 0.191777 7.93404 0.273664L9.98237 4.31168L14.5743 4.96109C14.9875 5.01942 15.1477 5.5545 14.8383 5.84771L11.537 8.97966L12.315 13.3941C12.3877 13.8079 11.9776 14.1314 11.6151 13.9463L7.49891 11.841L3.38508 13.9471Z" fill="#FBBC05"/>
</svg>